<svg id="visual" viewBox="0 0 900 600" width="900" height="600" xmlns="http://www.w3.org/2000/svg" xmlns:xlink="http://www.w3.org/1999/xlink" version="1.1"><path d="M0 79L82 79L82 49L164 49L164 79L245 79L245 55L327 55L327 67L409 67L409 115L491 115L491 49L573 49L573 73L655 73L655 85L736 85L736 97L818 97L818 97L900 97L900 43L900 0L900 0L818 0L818 0L736 0L736 0L655 0L655 0L573 0L573 0L491 0L491 0L409 0L409 0L327 0L327 0L245 0L245 0L164 0L164 0L82 0L82 0L0 0Z" fill="#fa7268"></path><path d="M0 151L82 151L82 205L164 205L164 193L245 193L245 139L327 139L327 157L409 157L409 175L491 175L491 169L573 169L573 205L655 205L655 145L736 145L736 229L818 229L818 157L900 157L900 217L900 41L900 95L818 95L818 95L736 95L736 83L655 83L655 71L573 71L573 47L491 47L491 113L409 113L409 65L327 65L327 53L245 53L245 77L164 77L164 47L82 47L82 77L0 77Z" fill="#ea5e66"></path><path d="M0 223L82 223L82 277L164 277L164 247L245 247L245 205L327 205L327 223L409 223L409 217L491 217L491 253L573 253L573 271L655 271L655 181L736 181L736 271L818 271L818 241L900 241L900 283L900 215L900 155L818 155L818 227L736 227L736 143L655 143L655 203L573 203L573 167L491 167L491 173L409 173L409 155L327 155L327 137L245 137L245 191L164 191L164 203L82 203L82 149L0 149Z" fill="#d84a64"></path><path d="M0 427L82 427L82 433L164 433L164 445L245 445L245 325L327 325L327 505L409 505L409 433L491 433L491 415L573 415L573 433L655 433L655 427L736 427L736 427L818 427L818 487L900 487L900 409L900 281L900 239L818 239L818 269L736 269L736 179L655 179L655 269L573 269L573 251L491 251L491 215L409 215L409 221L327 221L327 203L245 203L245 245L164 245L164 275L82 275L82 221L0 221Z" fill="#c53762"></path><path d="M0 601L82 601L82 601L164 601L164 601L245 601L245 601L327 601L327 601L409 601L409 601L491 601L491 601L573 601L573 601L655 601L655 601L736 601L736 601L818 601L818 601L900 601L900 601L900 407L900 485L818 485L818 425L736 425L736 425L655 425L655 431L573 431L573 413L491 413L491 431L409 431L409 503L327 503L327 323L245 323L245 443L164 443L164 431L82 431L82 425L0 425Z" fill="#b0235f"></path></svg>